<?xml version="1.0" encoding="utf-8"?>
<!-- Generator: Adobe Illustrator 23.0.3, SVG Export Plug-In . SVG Version: 6.00 Build 0)  -->
<svg version="1.1" id="Layer_1" xmlns="http://www.w3.org/2000/svg" xmlns:xlink="http://www.w3.org/1999/xlink" x="0px" y="0px"
	 width="576px" height="360px" viewBox="0 0 576 360" style="enable-background:new 0 0 576 360;" xml:space="preserve">
<style type="text/css">
	.st0{fill:none;stroke:#000000;}
	.st1{fill:#ED1D24;}
	.st2{fill:#A49464;}
	.st3{fill:none;stroke:#003056;stroke-width:1.554;}
	.st4{fill:#003056;}
</style>
<path class="st0" d="M540,159.7"/>
<path class="st0" d="M571.7,306"/>
<g>
	<g>
		<path class="st1" d="M476.4,250.5c4.3,1.1,11.3-2.4,16-3.6c-4.1,3.6-6.4,9.6-12.3,11.6c-5.8,2-8.4-1.3-14.5-1"/>
		<path class="st1" d="M519.4,204.2c-0.4,0.3-2.7,3.8-3,4.4c-0.1,0.3-0.4,0.7-0.7,0.7l0.5-1c0.2-0.3,0.1-1.9,0.1-1.9
			c0.1-2,0.8-3.1,0.5-5.1c0.7,0.2,1-0.3,1.7-0.2c0.2,0,0.4,0,0.5-0.1c0.4,0.1,1,0.7,1.1,0.9C520.9,202.9,520.2,203.7,519.4,204.2
			 M512.5,225.9c-2.9,1.2-6.5,1.6-9.4,3.1c1.8-2.2,3.2-3.8,4.7-6C509.6,225.1,510.7,224.2,512.5,225.9 M509.9,240.6
			c2.3,0.5,6.2,2.3,6.2,4.6C514.4,244.3,510.4,242.3,509.9,240.6 M538.1,205.9c0.6-3.9,5.2-3.4,7.3-6.2c-6.9-0.1-13.6,4.5-20.3,8.2
			c3.5-6.5,19.4-8.4,21.1-17.7c-1.2-1.8-2.2,1.5-3.3,1c0-2.3,1.5-4.8,1.7-7.1c-0.6,0.9-2.1,0.3-3.7,2.3c-1.3-1,0.5-2.2-1.9-3.2
			c-2,2.4-2.8,2.2-4,4.3c-2-1.5,0.8-3.3,0.6-5c-4.8,3.2-8.2,9.8-11.5,14.3c0.6-3.9,2.3-8.4,3.2-12.3c-1.7-0.3-3,2.9-3.6,3.9
			c-1.4,0.3-0.7-3-0.2-4.1c-3.6,2-1.7,6.4-5.6,9.7c1.9-7.2-1.4-11.8,0.3-16.9c-5.6,4.6-2.2,10.5-4.1,16.7c-1.8,0.7-2.5-3.9-4-4.5
			c-1.4,8.3,5.9,21.5-1.8,29.8c-0.3-6.6-5.5-17-2.7-23.8c-1.9-0.3-1.4,2.8-3.6,3.9c-1.6-4.3-1.6-4.4-2.4-5.6c-1.9-2.8-0.4,2,0,3.5
			c1.6,6.6-0.7,19.2,5.8,25.4c-1.5,2.4-2.7,3.6-4.9,6.3c-0.3-2.2-0.3-4.2,0.1-6.4c-0.9-0.7-0.8,1.9-2.4,2.6
			c4.6-6.2-2.3-16.6-11.8-22c4.7,8.8,2.6,20.4,12.7,27.5c-4.8,5-7.1,6.7-11.5,10.3c-0.8-1.1,1.9-2.5,2.5-3.6
			c-1.8-1.3,0.8-2.9,0.3-5.4c-0.5-2.5-0.5-10.3-4.7-10.6c0.5-0.2,1.7-0.6,2.3-0.3c-1.4-1.1-1.3-4.8-3.5-7.5
			c-0.5,8.7-6.9,16.2-2,24.8c1.6,1.7,2.7,2.5,1.7,5.1c-18.5,12.5-40,24.5-56.8,31.7l0.2,4.1c17.7-8.2,42.4-21.8,66.8-40.6
			c0,0,1.5-1.6,4.4,0.4c1.8,1.2,4.8,1,7.3,1.7c3.5,1.9,8.1,7.1,14.1,7.8c-0.6-10.1-13.4-6.9-20.3-14.3c4.5-3,9.1-3.3,14-0.4
			c4.3-0.7,8.5-4.5,12.9-3.6c0.7-1.3-1.9-0.5-2.6-0.7c0.3-0.8,4-4.7,5.6-5.3c0.8-2.3-1.6,0.3-2.1-0.3c-0.8-1.1,1.8-2.3,2.4-3.4
			c-6.2,3.7-10.6-1.9-17.5-2.6c11.7-3.8,23.4,1.3,35.1-0.9c2.2,1.8,4.3,1.8,6.5,2.5c-4.1-6.5-15.4-8.1-23.9-9.8
			c8.5-4.9,17.5-1.1,26-4.8C551.5,203.4,543.8,205.6,538.1,205.9"/>
		<path class="st2" d="M295.9,273.1c0,0.5,0.2,0.6,0.7,0.8c2.1,0.5,3.2,0.9,4.4,2.4c0.7,0.9,1.1,2.4,1.1,11.4v7.5
			c0,6.4-0.5,12.5-0.7,14c-0.3,2.3-0.5,2.8-4.8,3.8c0.3,0.7,0.5,1.5,0.7,2.3c1-0.1,3.3-0.2,5.6-0.2c2.7,0,6.2,0.3,8.5,0.3
			c0.2,0,0.6-0.4,0.5-0.6l-0.5-1.9c-1.4-0.3-5-0.9-5.5-2.8c-0.7-2.8-0.6-13.7-0.6-17.1c0.1-3.9,0.3-7.9,0.3-10.3
			c3.4,3.2,8.2,7.9,15.8,15.6c7.1,7.2,11.8,12.5,15.4,17.8c0.4,0.6,0.7,0.7,1.1,0.5c2-1.1,2.4-1.5,2.4-2.7c0-0.9-0.2-4.8-0.2-11
			c0-6,0.1-10.3,0.3-17c0.4-8.2,0.9-10.4,2.4-11.3c0.9-0.5,1.6-0.7,4-1.4l-0.4-1.7c-0.1-0.2-0.5-0.3-0.9-0.3c-1.5,0-4.9,0.3-7.3,0.3
			h-7.7l0.1,1.8c0,0.4,0.1,0.5,0.5,0.7c0.4,0.1,3.1,0.3,3.8,0.5c1.3,0.3,1.4,2,1.6,3.3c0.3,2.4,0.5,6.8,0.5,13.7
			c0,5-0.1,7.2-0.3,9.6c-12.8-11.7-20.3-19.4-23.7-22.9c-0.8-0.8-3.9-4.4-4-5.6c0-0.3-0.2-0.7-0.5-0.9c-0.3-0.2-0.7-0.3-1.3-0.3
			c-6.9,0-8.2-0.1-11.3-0.3V273.1z M266.4,273c4.4,0,8,2.6,10.2,5c4,4.6,5.1,11,5.1,17.2c0,11.9-6.1,18.4-11.5,18.4
			c-4,0-7.5-1.4-11.5-5.8c-3.1-3.4-5.3-9.1-5.3-15.6c0-6.2,1-10.8,4-14.6C259.8,274.7,262.9,273,266.4,273L266.4,273z M268,270.4
			c-6.2,0-12.7,2.2-17.2,6.5c-4.8,4.3-7.2,10.1-7.2,15.9c0,5.5,2.4,11.5,5.7,15.2c4.8,5.4,12.5,8.3,20.1,8.3c3.5,0,9.3-1.5,14.3-5.9
			c4.3-3.6,7.9-9.8,7.9-18.1C291.6,280.1,280.6,270.4,268,270.4L268,270.4z M207.9,316.7c0.5,0,0.9-0.1,1.3-0.4
			c0.4-0.5,0.7-0.8,1.1-1c0.4-0.1,0.7-0.1,1.3,0c2.4,0.6,5.5,1,8.1,1c2.4,0,8.3-0.7,11.8-2.6c3.6-1.9,6.3-5.5,6.3-10.4
			c0-3.7-1.1-6.1-3.8-8.8c-2.2-2.1-5.7-3.8-10.2-5.7c-3.7-1.5-5.2-2.7-6.7-4.2c-1.3-1.2-1.9-2.8-1.9-4.8c0-3.2,2.8-6.4,6.3-6.4
			c2.7,0,5.8,1.1,7.5,2.5c2.2,1.6,3,3.5,4.2,6.6c0.1,0.5,0.5,0.6,0.6,0.5c0.6-0.3,0.9-0.6,1.6-1c0.3-0.2,0.4-0.4,0.3-1
			c-0.7-4.1-0.9-7.5-0.7-11c-0.2-0.1-1.4-0.1-2.3-0.1c-0.4,1.1-0.9,1.4-1.6,1.3c-0.8-0.1-1.4-0.1-2.2-0.2c-1.2-0.1-4-0.4-5.9-0.4
			c-4.8,0-8.8,1.2-10.4,2.1c-3.1,1.7-5.8,4.8-5.8,9.4c0,3.4,1.1,5.9,2.5,7.5c2.4,2.9,5.6,4.7,10.3,6.7c3.7,1.6,5.3,2.7,6.3,3.4
			c2.1,1.3,3.4,3.6,3.4,5.7c0,4.9-3.7,8.2-8.5,8.2c-3.7,0-8.4-3.1-11-6.6c-1.1-1.5-1.5-2.9-2-3.9c-0.2-0.5-0.5-0.7-0.9-0.7
			c-0.3,0-0.9,0.1-1.3,0.1c-0.3,0.1-0.4,0.1-0.3,0.6c0.6,4.1,1,7.3,1.1,10.8c0.1,1.8,0.3,2.4,0.4,2.6
			C207.3,316.6,207.5,316.7,207.9,316.7L207.9,316.7z M157.8,302.9c0,7.5-0.4,9-2,9.4c-0.8,0.3-2,0.5-2.8,0.7
			c-0.3,0.1-0.2,2.1-0.1,2.3c1,0,5.3-0.2,8.7-0.2c6.3,0.1,7.9,0.1,9.7,0.2l0.3-1.8c0.1-0.5,0-0.6-0.3-0.7c-3.7-0.7-4.6-1-4.8-2.3
			c-0.1-0.7-0.4-2.8-0.4-10.5v-4.7c0-0.7,0.2-0.9,0.5-0.9c0.5,0,1.4-0.1,2.8,1.5c1.3,1.5,8.8,10,12.9,15c0.6,0.7,0.1,1.1-0.6,1.2
			c-0.8,0.1-2.5,0.6-2.8,0.7v2.3c9.6-0.1,15.6,0,20.3,0.3l0.7-1.5c0.3-0.5,0.2-0.7-0.4-0.9c-0.9-0.3-1.8-0.6-3.3-1.2
			c-2-0.8-3.9-2.7-5.9-5c-5.1-5.7-10.3-11.1-15.1-16.7c-0.3-0.5-0.3-1.1,0.1-1.5c6.9-6.2,11-9.7,13.7-11.6c1.9-1.3,3.9-2.4,7.3-3.3
			c0.5-0.1,0.8-0.3,1.1-2c0-0.3-0.2-0.5-0.3-0.5c-0.5,0-7.7,0.3-15.8,0.3c-0.1,0.1-0.3,0.2-0.3,0.5l-0.1,2.3
			c1.3,0.2,2.7,0.3,3.4,0.3c0.5,0.1,0.4,0.7-1.3,2.5c-3.4,3.7-9.3,9.6-12.8,12.4c-1.4,1.1-3,2.3-3.6,2.4c-0.4,0.1-0.5-0.1-0.5-0.9
			v-9.1c0-5.2,0.3-6.6,0.9-7c0.7-0.4,1.7-0.7,4.4-1.5c0-0.3-0.1-1.4-0.3-1.8c-0.1-0.1-0.3-0.3-0.8-0.3c-0.5,0-2.9,0.2-8.8,0.3
			c-2.6,0-5.2-0.1-7.9-0.1c-0.3,0.4-0.6,2-0.6,2.3c1.1,0.1,2.6,0.5,3.4,1.1c1.1,0.7,1.3,1.6,1.3,9.5V302.9z M103.6,293.7
			c0,10.4,7.2,22.6,25.8,22.6c4.8,0,8.4-1.1,10.4-1.1c0.7-0.1,0.9-0.1,1.4-0.7c0.9-1.5,2.4-4.9,3.1-8.9c0.1-0.6-0.1-0.8-0.9-1.3
			c-0.7-0.7-1-0.5-1.1-0.4c-0.5,0.9-1.1,2.6-2.4,4.1c-1.9,2.2-5.3,5.3-9.8,5.3c-12.3,0-16.4-11.9-16.4-19.6c0-5.3,1.1-10.8,4.5-15
			c3-3.8,7.1-5.5,10.8-5.5c3.4,0,6.5,1.4,7.7,2.6c1.2,1.1,1.5,2,2,3.2c0.5,1.2,1.3,3.3,1.5,4c0.1,0.3,0.5,0.6,1.7,0.5
			c0.7,0,0.9-0.1,0.9-0.3c-0.3-4.6-0.2-7.8,1.1-11.4c0.1-0.3,0.1-0.5-0.5-0.6c-1-0.4-1.3-0.4-1.6-0.3c-0.5,0.2-1.9,0.8-2.5,0.6
			c-1.3-0.5-4.6-0.9-7.6-0.9c-2.8,0-5.7,0.1-8.7,0.8c-5,1.1-10.6,3.1-14.1,7.1C104.8,283.1,103.6,289,103.6,293.7L103.6,293.7z
			 M73.2,297c-0.9,0-1.6-0.5-1.5-0.8c2.7-6.9,3.6-9.2,5.9-14.3c0.1-0.3,0.5-0.2,0.7,0.2c1.1,2.9,2.6,6.7,5,14.1
			c0.1,0.2-0.4,0.8-1.1,0.8c-1.7,0.1-2.9,0.1-5.1,0.1C75.2,297,74,297,73.2,297L73.2,297z M81.8,270.4c-1,0-2.3,0.3-3,0.7
			c-0.3,0.1-0.5,0.5-0.6,0.9c-0.4,0.8-0.9,2.4-1.5,4c-3.5,8.5-11.5,26.7-13.1,30c-1.5,3.2-2.3,6-5.8,6.9c-0.3,0.1,0.2,1.5,0.4,1.9
			c0.1,0.2,0.1,0.3,0.5,0.3c0.3,0.1,1.3,0,2.5,0c1.3,0,5.2,0,9.4,0.1c0.3-0.1,1.1-2.1,0.5-2.2c-3.2-0.7-4.2-1.3-4.2-3
			c0-2,1.6-5.7,2.3-7.5c0.5-1.2,0.8-1.8,2-1.8c3.1-0.3,10.4-0.2,12.8-0.2c0.4,0,0.9,0.4,1.5,1.7c0.3,0.7,2.8,7.1,2.8,8.7
			c0,1.3-0.4,1.8-3.2,2.5c-0.1,0.1,0.5,1.5,0.6,1.9c0.1,0.2,0.2,0.3,0.5,0.3c0.7,0,3.6-0.2,5.8-0.2c2.3,0,3.6,0.1,10.4,0.1
			c0.5-0.1,1-2.4,0.9-2.2c-3.9-0.8-4.9-2.6-6.7-6.3c-1.1-2.4-5.7-13.3-7.9-19.4c-2.4-6.3-3.8-10-5.8-15.9
			C82.7,270.6,82.6,270.4,81.8,270.4L81.8,270.4z M55.2,265.6l-0.3-2.5c-0.1-0.3-0.2-0.3-0.7-0.3c-1.6,0-7.1,0.3-10.6,0.3
			c-3.4,0-7.8-0.2-9.5-0.2c-0.4,0-0.9,0.2-1,0.7c-0.2,0.5-0.6,1.6-0.6,2.3c6,0.5,6.2,0.7,6.6,5.6c0.2,2.1,0.3,6.1,0.3,13.6v14.6
			v18.7c0,4.5-0.8,6.1-2.2,7.2c-0.9,0.8-2.2,1.1-3.3,1.1c-2.1,0-3.7-1.2-5.8-2.4c-0.7-0.5-1.6-0.4-2.4,0.2c-1,0.6-1.9,1.4-3.2,2.7
			c-0.5,0.5-0.6,1.2-0.6,2c0,0.9,0.2,1.6,1,2.3c1.2,1,3.6,1.9,5.6,1.9c1.9,0,4.8-1.1,5.8-1.8c4.4-2.8,10.8-6.9,13.5-11.8
			c0.7-1.4,1.6-3,1.6-6.5c0-6.6,0.2-14.5,0.2-21v-11c0-8.7,0.1-11.1,0.2-13.2c0.2-1.2,1-1.9,2.9-2L55.2,265.6z"/>
		<path class="st2" d="M541.8,291.8c-0.4,0-0.7-0.5-0.7-1.3c-0.1-4.4-0.1-8.8-0.1-13.5c0-0.8,0.1-2.2,1.3-2.2
			c0.8-0.1,2.6-0.2,6.5-0.2h2.9c3.4,0,4.6,1.8,6.5,7.2c0.1,0.5,0.3,0.7,2.5,0.6c0-2.1,0-5.1,0.7-8.9c0.2-1.1-0.1-1.5-0.3-1.8
			c-0.3-0.3-0.7-0.3-1.6-0.3c-4.2,0-8,0.4-13.7,0.4h-5.5c-5.1,0-8.3-0.2-10.4-0.2h-2.2c-0.4,0-0.4,0.1-0.4,0.4l-0.2,1.5
			c-0.1,0.3,0,0.3,0.2,0.4c2.2,0.5,3.2,0.7,3.9,0.9c0.7,0.1,0.7,0.7,0.8,1.3c0.1,0.4,0.5,2.2,0.5,8v15.3c0,6.1-0.4,10.8-0.5,11.7
			c-0.1,1.3-0.7,1.5-4,2.3c-0.2,0.1-0.3,0.1-0.3,0.5c-0.1,0.5-0.2,1.8,0.1,1.9c4.9-0.1,11.2-0.4,18-0.4c5.9,0,10.4,0.1,12.3,0.1
			c2.1,0.1,2.6,0.1,3.1,0.1c0.3,0,0.5-0.1,0.7-0.5c0.9-1.8,2.2-6.7,2.3-10.7c0-0.5,0-0.5-0.2-0.5c-0.3-0.1-1.8-0.2-2,0
			c-2.4,7.6-6.6,8.8-13.1,8.8c-2.8,0-6.5-0.1-7.5-1.5c-0.5-0.7-0.5-1.9-0.5-6.1c0-5.3,0.3-8.7,0.5-9.2c0.1-0.5,0.4-0.6,0.7-0.7
			c0.4-0.1,1.1-0.1,3.1-0.1c2.9,0,4.4,0,6.2,0.1c2.3,0.1,3.4,0.9,3.9,2.4c0.3,0.7,0.9,2.4,1.1,3c0.2,0.3,0.5,0.5,1.1,0.4
			c0.7,0,1.3-0.1,1.5-0.2c-0.3-2.4-0.3-3.6-0.4-6.2c0-2.4,0.3-5.9,0.5-7.5c-0.9-0.2-2.4,0-2.6,0.3c-1.3,3.6-2,4.4-5.6,4.6
			c-1.3,0.1-3.1,0.1-6.1,0.1H541.8z M520.1,303.4c-0.4,0-0.5,0.1-0.7,0.5c-0.5,2.2-0.9,3.5-1.5,4.4c-2,3.5-6.2,4.1-10.8,4.1
			c-3,0-4-0.1-5.1-0.5c-1.1-0.3-1.3-0.7-1.4-2c-0.1-1.3-0.2-3.4-0.3-13.1l-0.1-8.4c-0.1-7.1,0.1-9.8,0.4-11.7c0.4-2.3,3.5-2.6,5.9-3
			c0.1-0.3-0.2-2.4-0.5-2.4c-3.2,0.2-7.3,0.4-11.6,0.5c-2.7,0.1-5.3,0-7.9-0.1c-0.1,0-0.2,0-0.3,0.3l-0.5,1.4
			c-0.2,0.7,0.1,1.1,0.2,1.1c4.6-0.1,5.2,0.3,5.4,1.5c0.3,2.2,0.6,5.7,0.6,11.4v13.3c0,6.3-0.2,8.3-0.4,9.6
			c-0.3,1.8-2.4,2.6-5.3,3.2c-0.1,0.4,0.1,1.6,0.3,2.2c0.1,0.1,0.5,0.1,0.9,0.1c1.5-0.1,5-0.5,9.1-0.5c12.1,0,15.3,0.2,18,0.2
			c2.8,0,3.6,0,4.2-0.1c0.7-0.1,1.1-0.3,1.2-1.2c0.5-2.7,1.1-5.6,2.2-9.1c0.1-0.3-0.1-0.7-0.3-0.9
			C521.6,303.9,520.5,303.4,520.1,303.4L520.1,303.4z M456.8,273c4.4,0,8,2.6,10.2,5c4,4.6,5.1,11,5.1,17.2
			c0,11.9-6.1,18.4-11.5,18.4c-4,0-7.5-1.4-11.5-5.8c-3.1-3.4-5.3-9.1-5.3-15.6c0-6.2,1-10.8,4-14.6
			C450.2,274.7,453.3,273,456.8,273L456.8,273z M458.4,270.4c-6.2,0-12.7,2.2-17.2,6.5c-4.8,4.3-7.2,10.1-7.2,15.9
			c0,5.5,2.4,11.5,5.7,15.2c4.8,5.4,12.5,8.3,20.1,8.3c3.5,0,9.3-1.5,14.3-5.9c4.3-3.6,7.9-9.8,7.9-18.1
			C482,280.1,471,270.4,458.4,270.4L458.4,270.4z"/>
	</g>
	<path class="st3" d="M348.5,284.3"/>
	<g>
		<path class="st2" d="M386.3,287.1c-1,0-1.3-0.6-1.3-3.1c0-7.3,0.2-13.1,0.5-14.5c0.3-1.7,2.9-2.2,5-2.7c0.2-0.4,0.1-2.3-0.2-2.7
			c-1.7,0.1-3.6,0.2-5.5,0.2c-2,0.1-4.1,0.1-6.4,0.1h-8.1c-0.5,0-0.6,0-0.7,0.2c-0.3,0.8-0.5,1.6-0.4,2.1c4.9,0.9,5.2,1.6,5.4,3.8
			c0.1,2.1,0.3,5,0.3,12.4v14.2c0,7.3-0.2,10.3-0.2,11.5c-0.2,2-1.3,2.5-5.3,3.9c-0.1,0.5,0.3,1.6,0.5,2.3c0.2,0.2,0.3,0.2,0.5,0.2
			c0.7,0,2.3-0.2,6.7-0.3c3.8,0,10.2,0.1,14.6,0.3c0.2-0.4,0-2,0-2.7c0-0.2-0.2-0.3-0.5-0.3c-3.6-0.8-4.8-0.9-5.4-1.8
			c-0.5-0.7-0.6-1.3-0.8-3.8c-0.2-3.1-0.2-8-0.2-13.9c0-0.8,0.1-1.3,1.3-1.5c0.5-0.1,14.4-1.1,26.9-6c0.5-0.2,0.7,0.6,0.6,1.2v13.1
			c0,6.1-0.2,9.5-0.6,10.6c-0.3,0.9-1.3,1.6-5.2,2l-0.1,2.5c0,0.2,0.1,0.2,0.5,0.2c1.2,0,2.5-0.2,9.2-0.2h11.6
			c0.5-0.1,1.1-2.5,0.9-3c-4.9-0.5-5.7-1.5-5.9-3.7c-0.2-2.6-0.4-5.6-0.4-12v-14.2c0-6.9,0.2-10.4,0.2-11.7c0.2-2.5,1.4-3.1,5.9-3.8
			c0-0.6-0.2-1.1-0.5-2.1c-0.2-0.2-0.4-0.2-1.4-0.2c-0.2,0-1.7-0.1-3.5,0.1c-1.7,0.1-3.6,0.2-4.8,0.2c-3.9,0-7.7-0.2-11.7-0.2
			c-0.3,0.1-0.8,2.6-0.5,2.7c4.6,0.5,6.2,0.9,6.3,3.6c0,1.4,0.1-0.9,0.1,2.7v4.3c0,1.9-0.1,2.5-0.9,2.9
			C398.6,286.6,386.3,287.1,386.3,287.1"/>
		<path class="st4" d="M183.8,160.5c2.4-4.5,5.4-10.3,5.4-10.3s2.4-4.6,7.5-4.6l12.1-0.2c0,0,1.8,0.6,3.2-2.5l6-15.5
			c0,0,1.8-4.5,6.3-6.3l7.5-2.9c0,0,12-4.7,22-17.9l10.2-13.9c0,0,1.7-2.4,4.2-0.2l3.1,2.6c0,0,2.1,2,3.9-0.2l7.6-9
			c0,0,2.3-3.1,5.9,0.2l13,12.4c0,0,2.6,2.6,4.8,0.1l1.2-1.3c0,0,1.2-1.5,3,0.1l29.7,30.2c0,0,4.2,4.5,9.1,6.8l11.4,5.5
			c0,0,3.7,1.5,2.9,5.8l-1.7,10.1c0,0-1.4,5.5,2.2,9.8l21.5,32.3c0,0,2.6,2.9,6.5,2.2l9.4-1.4c0,0,6.7-0.9,10.8,3.5l28.7,29.9
			c0,0,3.3,3.7,6-0.6c0,0,19.5-28.2,21.9-32c1.4-2.3,3.3-3.7,5.3-4.7c5.5-2.8,22.1-12.2,22.1-12.2c2.3-1.4,2.7-2.4,5.2-8.5l7.2-15.6
			c0,0,3.8-9.5,11.2-0.7L545,174c0,0,2.4,2.5-1.3,1.4l-21.9-9.8c0,0-4.7-3.1-7,1.4c0,0-2.8,8.5-6,12.9c-3.2,4.5-28.7,15.8-30.7,19.1
			c0,0-7.5,10.7-8.5,13.7c-1,3-0.4,18.1-1.9,18.6c-1.6,0.4-5-6.4-7.3-6.3c-2.4,0.1-8.5,11-12.9,16.8c-1.8,2.2-5.8,4.9-10.9-1.1
			l-25.2-28.6c0,0-8.6-9.3-20.6-5.5l-14.3,4.5c0,0-1.9,0.6-0.8-1.1l2.8-4.5c0,0,1.8-2.2-1.1-8.3l-15.8-25.2c0,0-2.7-2.8-3.5,1
			l-1.3,6.3c0,0-1.4,6.7-2.6,0l-1.8-10.2c0,0-3-16.9-16.8-32l-15.5-17.1c0,0-11.1-12.2-21,1l-12,16.1c0,0-4.7,6.2-1.9-1.1l3.4-9.1
			c0,0,1.4-3.6-1.3-6.5l-5-5.4c0,0-7.7-8.2-15.3,1.8l-9.5,12c0,0-2.1,1.8-3.4,0.3l-3.4-3.4c0,0-2.7-2.9-6.8-1.5l-14.5,5.6
			c0,0-1.6,0.4-2.4,2.8l-6.9,17.5c0,0-1.1,3.8-7.5,3.8h-12.4c0,0-2.3-0.2-3.8,2.9l-18.8,31.4c0,0-4.2,6.5-9.6,0.9l-10.2-10.8
			c0,0-11.4-11.9-27.7-8.9l-22.8,4.1c0,0-2.1,0.3-3.8,2.4l-8.9,9.5c0,0-3.2,3.7-2.2-0.7c0,0,2.1-6.1,2-7.5c-0.1-0.8-3.1-3.3-5.3-4.1
			c-1.7-0.6-2.5,0-3.8,1.5l-15,16.8c0,0-1.9,2.2-4.8,2l-5.3-0.5c0,0-8.2-0.8-14.7,7.7l-8.1,10.6c0,0-10,13.1-2.9-1.8l8.4-17.5
			c0,0,3.3-6.1,9.8-6.1c6.5,0,8.1,0.5,9.3-1.3c1.1-1.6-0.3-2.8,1.5-5C65,177.4,85,158.3,85,158.3s3.6-3.2,6.8,0.4l4.7,5.3
			c0,0,0.6,0.7,0.8-0.2l1.1-3.9c0,0,0.1-3,13.1-13.2l15.9-12.6c0,0,4.6-3.6,7.1-8.9l3.6-7.7c0,0,2.9-6.2,8.8-2.7l8.4,4.9
			c0,0,7.6,4.4,9.2,13l2.2,12.1c0,0,0.2,1,1.1,1h4c0,0,4.9,0,6.5,6.6l2.2,8.6C180.7,160.9,181.5,165,183.8,160.5"/>
		<path class="st4" d="M355.7,123.1c0,0-2-1.1-0.1-3.9l7.7-11.9c0,0,0.5-0.8,1.3-0.2l3.9,2.9c0,0,3.8,3.5,6.9-1.3l22.1-31.1
			c0,0,3.6-5.4,8.8-0.7l15.4,15c0,0,1.9,2.1,3.5-0.3l3.6-4.3c0,0,2.2-2.9,5.3,0.2l18.4,17.8c0,0,1.7,1.2,2.7,4.2l8.7,23.8
			c0,0,0.5,2.7,5,5.6L487,147c0,0,2.8,0.8,3.7,0.6l6.2-0.9c0,0,6.7-0.9,3,6.3l-6,13.1c0,0-1.2,2.1-2.9,3.3c0,0-13.6,8.8-19.6,12
			c-1.9,1-5.2,4.1-6,5.3c-2.4,3.3-16.8,26.1-19,28.2c0,0-1.3,1.6-3.6-0.2l-28-28.9c0,0-4-4.1-10-3.3l-9.7,1.2c0,0-4.3,1.2-6.6-1.6
			l-18.2-26.3c0,0-1.3-1.2-0.4-5.6l1.7-9c0,0,2.1-9.5-6.8-13.4"/>
		<path class="st4" d="M370.1,100.2l-4.1-2.9c0,0-2.7-1.9-4.8,0.7L349,114.2c0,0-2,2.7-4.4,0.3l-32-32.9c0,0-2.3-2-4.5,0.3l-3.1,3.1
			c0,0-1.2,1.1-2.8-0.4l-9-8.8c0,0-2.4-2.4-1.1-4.5c1.3-2.1,6.1-7.4,8.9-10.2c3-2.9,7.5-6.9,9.4-6.2c1.7,0.7,1.3,5.2,3,5.5
			c2,0.4,8.3-8.2,12.3-11.7c4-3.6,13.9-6,18.2-10.2c4.1-4,4.6-9.6,6-11.9c1.4-2.3,4.9-5.5,6.5-5.4c1.2,0.1,2.2,1.7,2.4,2.7
			c0.5,2,1.9,2.2,2.9,2.8c0.9,0.6,4.4,1.5,7.5,4.9c3.1,3.4,7.6,9.7,10.2,15.5c4.4,9.9,9,26,9,26s0.9,3.2-1,6
			c0,0-13.7,19.1-14.9,20.8C371.4,101.6,370.1,100.2,370.1,100.2"/>
	</g>
	<g>
		<path class="st1" d="M354.3,290.5c4.1,0.5,9.8,1.3,17.5,1.3l-0.1-3.9c-5.9,0.6-11.6,1-17.3,1c-0.9,0-2.3,0.1-2.6,0.6
			C351.5,289.9,353.3,290.4,354.3,290.5"/>
		<path class="st2" d="M306.4,243.5c0,9.4-0.5,11.4-2.5,11.8c-1,0.3-2.5,0.7-3.6,0.8c-0.3,0.2-0.3,2.6-0.1,3c1.3,0,6.6-0.3,10.9-0.3
			c7.9,0.1,10,0.2,12.2,0.3l0.4-2.3c0.2-0.6,0-0.8-0.3-0.8c-4.7-0.9-5.8-1.3-6-2.9c-0.2-0.8-0.5-3.5-0.5-13.2v-5.9
			c0-0.9,0.3-1.2,0.6-1.2c0.6,0,1.8-0.1,3.6,2c1.6,1.9,11.1,12.6,16.3,18.9c0.8,0.8,0.1,1.4-0.8,1.5c-1,0.2-3.1,0.8-3.6,0.8v2.9
			c12.1-0.1,19.6,0,25.5,0.3l0.9-1.9c0.3-0.6,0.3-0.8-0.5-1.1c-1.2-0.3-2.3-0.8-4.2-1.5c-2.5-1-4.9-3.4-7.5-6.3
			c-6.4-7.2-13-13.9-19-21c-0.4-0.7-0.4-1.4,0.1-1.9c8.7-7.8,13.9-12.2,17.2-14.6c2.4-1.6,4.9-3,9.3-4.2c0.7-0.2,1-0.3,1.4-2.5
			c0-0.4-0.3-0.6-0.4-0.6c-0.6,0-9.7,0.4-19.9,0.3c-0.2,0.2-0.3,0.3-0.3,0.6l-0.1,2.9c1.6,0.3,3.4,0.3,4.2,0.4
			c0.6,0.1,0.5,0.9-1.6,3.1c-4.3,4.7-11.7,12.1-16.1,15.7c-1.8,1.4-3.7,2.9-4.5,3c-0.5,0.1-0.7-0.2-0.7-1.2v-11.4
			c0-6.6,0.4-8.3,1.2-8.8c0.8-0.5,2.1-0.9,5.5-1.9c0-0.4-0.2-1.8-0.3-2.3c-0.1-0.2-0.4-0.3-1-0.3s-3.6,0.3-11.1,0.3
			c-3.3,0-6.6-0.2-9.9-0.2c-0.3,0.5-0.8,2.5-0.8,3c1.4,0.2,3.2,0.6,4.3,1.4c1.4,0.9,1.6,2,1.6,12V243.5z M227.7,205.9
			c0,0.6,0.3,0.8,0.9,1c2.6,0.6,4.1,1.1,5.6,3.1c0.9,1.2,1.4,3,1.4,14.3v9.4c0,8.1-0.7,15.7-0.9,17.7c-0.4,2.9-0.6,3.6-6,4.8
			c0.3,0.9,0.7,1.9,0.9,3c1.3-0.1,4.2-0.3,7-0.3c3.4,0,7.8,0.3,10.8,0.3c0.3,0,0.8-0.5,0.7-0.8l-0.6-2.4c-1.8-0.3-6.3-1.1-7-3.5
			c-0.9-3.5-0.8-17.3-0.8-21.6c0.1-4.9,0.3-9.9,0.4-13c4.2,4,10.3,10,20,19.7c9,9.1,14.9,15.8,19.4,22.5c0.5,0.8,0.9,0.8,1.4,0.6
			c2.5-1.4,3-2,3-3.4c0-1.2-0.3-6-0.3-13.8c0-7.6,0.1-13,0.4-21.4c0.5-10.4,1.1-13.1,3-14.2c1.2-0.7,2-0.8,5-1.8l-0.5-2.2
			c-0.1-0.3-0.7-0.3-1.1-0.3c-1.9,0-6.1,0.4-9.2,0.4h-9.7l0.2,2.3c0,0.5,0.2,0.6,0.6,0.8c0.5,0.2,3.9,0.4,4.8,0.7
			c1.6,0.4,1.8,2.5,2,4.2c0.4,3.1,0.6,8.6,0.6,17.3c0,6.3-0.1,9.1-0.3,12.1c-16.1-14.7-25.6-24.4-29.9-28.9c-1-1-4.9-5.6-5.1-7
			c0-0.4-0.3-0.8-0.7-1.2c-0.3-0.3-0.9-0.3-1.7-0.3c-8.7,0-10.3-0.2-14.3-0.3V205.9z M183.6,236.1c-1.2,0-2-0.6-1.9-1
			c3.4-8.7,4.5-11.6,7.4-18c0.2-0.3,0.7-0.3,0.9,0.3c1.4,3.6,3.2,8.4,6.3,17.7c0.1,0.3-0.5,1-1.4,1c-2.1,0.1-3.6,0.1-6.4,0.1
			C186.2,236.1,184.7,236.1,183.6,236.1L183.6,236.1z M194.5,202.6c-1.3,0-2.9,0.4-3.8,0.8c-0.3,0.2-0.6,0.6-0.8,1.2
			c-0.5,1-1.2,3.1-2,5c-4.4,10.7-14.5,33.6-16.5,37.8c-1.9,4-2.9,7.6-7.3,8.8c-0.4,0.2,0.3,1.9,0.5,2.4c0.1,0.3,0.2,0.3,0.6,0.3
			c0.3,0.1,1.6,0,3.1,0c1.7,0,6.5,0,11.9,0.1c0.4-0.1,1.4-2.6,0.7-2.8c-4-0.8-5.3-1.7-5.3-3.8c0-2.5,2-7.2,2.9-9.4
			c0.6-1.5,1-2.2,2.5-2.3c3.9-0.3,13.1-0.3,16.1-0.3c0.5,0,1.2,0.5,1.9,2.1c0.4,0.9,3.6,8.9,3.6,10.9c0,1.7-0.5,2.2-4,3.1
			c-0.2,0.2,0.6,2,0.8,2.4c0.1,0.3,0.3,0.3,0.6,0.3c0.9,0,4.6-0.3,7.3-0.3c2.9,0,4.5,0.1,13.2,0.2c0.7-0.1,1.3-3,1.2-2.8
			c-4.9-1-6.2-3.2-8.4-7.9c-1.4-3-7.1-16.8-10-24.4c-3-7.9-4.8-12.6-7.3-20C195.5,202.8,195.4,202.6,194.5,202.6L194.5,202.6z
			 M131.4,255.4c-2.4,0-3.3-0.1-5.2-2.3c-2-2.2-2.2-2.8-2.1-20.3c0-3.9,0.5-4.8,1-5.2c1-1.3,4.5-1.4,6.2-1.4c2.9,0,7.3,0.2,11,3.9
			c2.9,2.8,3.8,6,3.8,11C146.1,250.7,138.3,255.4,131.4,255.4L131.4,255.4z M141.5,210.2c0,5.1-1.3,8.7-4.7,11c-1.9,1-5,1.2-6.2,1.2
			c-1.5,0-3-0.1-4.1-0.3c-1.1-0.2-1.6-0.3-1.6-2.1c-0.3-2.4-0.4-6.5-0.4-12c0-4.6,0.4-6.8,0.5-7.8c0.2-0.7,0.3-0.9,1.4-1.2
			c1.3-0.4,2.5-0.5,3.4-0.5c2.7,0,6.3,1.1,8.5,3.2C140.8,204,141.5,206.6,141.5,210.2L141.5,210.2z M111.8,234.7
			c0,3.4-0.2,8.1-0.4,14.6c-0.1,3.8-0.7,4.5-3,5.5c-1.1,0.6-2.3,1.1-3.4,1.7c-0.1,0.5,0.8,2.9,1.1,2.9c1.1,0,6.2-0.5,10.6-0.5
			c3.8,0,16,0.4,17.8,0.4c1.7,0,6.5-0.1,11-1.6c8.2-2.8,14.6-8.4,14.6-17.5c0-10-8.3-15.4-15.8-17c-0.9-0.2-1.3-0.8-0.9-1
			c1.1-0.4,4-1.3,6.3-3.1c3.9-2.9,5.1-6.6,5.1-10.2c0-6.7-5.1-10.7-8.4-12c-5.3-2.1-10.5-2.3-14.9-2.3c-4.1,0-15.7,0.4-19.1,0.6
			c-2.5,0.2-4.9,0.2-6.4,0.4l-1.4,3.2c6.4,1.7,6.6,2.1,6.8,4.5c0.3,3.4,0.3,9,0.3,16.1V234.7z"/>
		<path class="st2" d="M376.5,224.1c2.3,0,4.2,1.3,5.3,2.6c2.1,2.4,2.7,5.8,2.7,9c0,6.2-3.2,9.6-6,9.6c-2.1,0-4-0.7-6-3
			c-1.6-1.8-2.8-4.8-2.8-8.2c0-3.2,0.5-5.7,2.1-7.6C373.1,225,374.7,224.1,376.5,224.1L376.5,224.1z M377.4,222.8
			c-3.2,0-6.6,1.2-9,3.4c-2.5,2.3-3.8,5.3-3.8,8.3c0,2.9,1.2,6,3,8c2.5,2.8,6.5,4.3,10.6,4.3c1.8,0,4.9-0.8,7.5-3.1
			c2.3-1.9,4.2-5.2,4.2-9.5C389.7,227.8,384,222.8,377.4,222.8L377.4,222.8z"/>
		<path class="st2" d="M392.6,245c-0.1,0.1-0.1,0.6,0,1.1c0,0.2,0.2,0.3,0.4,0.3c0.1,0,2.6-0.1,4.1-0.1c1.7,0,3.2,0.1,4.6,0.1h0.9
			l0.4-1c0-0.2,0-0.3-0.2-0.3c-2.4-0.2-3.3-0.3-3.4-1.5c-0.1-0.8-0.2-2-0.2-3.7v-2.2c0-1.2,0.2-1.6,0.5-1.6c0.5,0,1,0,2.3,0
			c2.6,0,3.6,0.1,4.2,0.6c0.5,0.4,0.7,1.1,0.9,2.1c0.2,0.1,1.1,0,1.3-0.1c0-0.8-0.2-2.3-0.2-3.3c0-1,0-1.9,0-3.1
			c-0.2-0.2-1.3,0-1.4,0.2c-0.5,1.7-0.6,1.9-2,2c-0.6,0-1.4,0.1-3.1,0.1c-1.3,0-1.9,0-2.3-0.1c-0.1,0-0.2-0.2-0.2-0.6
			c0-0.3-0.1-4.3,0.1-7.3c0.1-1.1,0.2-1.3,0.7-1.4c0.7-0.1,1.2-0.2,2.3-0.2c1.9,0,3,0.1,3.8,0.4c0.9,0.4,1.7,1.4,2.1,3.2
			c0,0.1,0.1,0.2,0.9,0.3c0.4,0,0.4-0.1,0.4-0.2c0-0.4,0-2.5,0.1-4.8c0-0.4-0.1-0.5-0.3-0.5c-0.8,0.2-3.3,0.2-5.6,0.2h-6.6
			c-1.4,0-4.2-0.1-4.5-0.1s-0.3,0-0.4,0.2c-0.1,0.4-0.1,0.8-0.1,1c2.3,0.4,2.4,0.5,2.5,1.9c0.1,1.7,0.1,3.4,0.1,5.8v3.5
			c0,3.4-0.2,7.1-0.3,8.4c-0.1,0.7-0.3,0.8-1.2,0.8H392.6z"/>
	</g>
</g>
</svg>
