<?xml version="1.0" encoding="UTF-8"?>
<svg width="190px" height="68px" viewBox="0 0 190 68" version="1.1" xmlns="http://www.w3.org/2000/svg" xmlns:xlink="http://www.w3.org/1999/xlink">
    <!-- Generator: Sketch 53.2 (72643) - https://sketchapp.com -->
    <title>Group 21</title>
    <desc>Created with Sketch.</desc>
    <g id="Page-1" stroke="none" stroke-width="1" fill="none" fill-rule="evenodd">
        <g id="Desktop-v5" transform="translate(-30.000000, -41.000000)">
            <g id="Group-21" transform="translate(30.000000, 41.000000)">
                <path d="M68.3775811,34 C68.3775811,52.7774754 53.070531,68 34.1887906,68 C15.3070501,68 0,52.7774754 0,34 C0,15.2225246 15.3070501,0 34.1887906,0 C53.070531,0 68.3775811,15.2225246 68.3775811,34" id="Fill-1" fill="#6FB828"></path>
                <polygon id="Fill-3" fill="#231F20" points="87.8148614 28.0906328 87.8148614 30.8786328 84.1151858 30.8786328 84.1151858 44.5901082 80.9440354 44.5901082 80.9440354 30.8786328 77.2443599 30.8786328 77.2443599 28.0906328"></polygon>
                <polygon id="Fill-5" fill="#231F20" points="89.423472 44.5901639 89.423472 28.0906885 92.5946224 28.0906885 92.5946224 34.6721967 97.0755959 34.6721967 97.0755959 28.0906885 100.246746 28.0906885 100.246746 44.5901639 97.0755959 44.5901639 97.0755959 37.4601967 92.5946224 37.4601967 92.5946224 44.5901639"></polygon>
                <polygon id="Fill-7" fill="#231F20" points="102.820041 44.5901639 102.820041 28.0906885 111.506236 28.0906885 111.506236 30.8786885 105.991192 30.8786885 105.991192 34.6721967 110.196413 34.6721967 110.196413 37.4601967 105.991192 37.4601967 105.991192 41.8021639 111.736029 41.8021639 111.736029 44.5901639"></polygon>
                <path d="M122.674425,39.7000721 C122.674425,40.6141705 122.85826,41.2306295 123.225929,41.5505639 C123.593599,41.8710557 124.099145,42.031023 124.742566,42.031023 C125.385988,42.031023 125.891534,41.8710557 126.259204,41.5505639 C126.626873,41.2306295 126.810708,40.6141705 126.810708,39.7000721 L126.810708,38.6025967 L129.981858,38.6025967 L129.981858,39.2881705 C129.981858,40.3092852 129.851829,41.1704328 129.591209,41.8710557 C129.33059,42.5716787 128.970767,43.1390885 128.51118,43.5732852 C128.051593,44.0080393 127.500088,44.3235148 126.856667,44.5213836 C126.213245,44.7198098 125.508732,44.819023 124.742566,44.819023 C123.976401,44.819023 123.271888,44.7198098 122.628466,44.5213836 C121.985044,44.3235148 121.43354,44.0080393 120.973953,43.5732852 C120.514366,43.1390885 120.153982,42.5716787 119.893923,41.8710557 C119.633304,41.1704328 119.503274,40.3092852 119.503274,39.2881705 L119.503274,33.3927934 C119.503274,32.3722361 119.633304,31.5110885 119.893923,30.8099082 C120.153982,30.1092852 120.514366,29.5418754 120.973953,29.1076787 C121.43354,28.673482 121.985044,28.3574492 122.628466,28.159023 C123.271888,27.9611541 123.976401,27.861941 124.742566,27.861941 C125.508732,27.861941 126.213245,27.9611541 126.856667,28.159023 C127.500088,28.3574492 128.051593,28.673482 128.51118,29.1076787 C128.970767,29.5418754 129.33059,30.1092852 129.591209,30.8099082 C129.851829,31.5110885 129.981858,32.3722361 129.981858,33.3927934 L129.981858,33.4384984 L126.810708,33.4384984 L126.810708,32.9808918 C126.810708,32.0673508 126.626873,31.449777 126.259204,31.1304 C125.891534,30.8099082 125.385988,30.6504984 124.742566,30.6504984 C124.099145,30.6504984 123.593599,30.8099082 123.225929,31.1304 C122.85826,31.449777 122.674425,32.0673508 122.674425,32.9808918 L122.674425,39.7000721 Z" id="Fill-9" fill="#231F20"></path>
                <polygon id="Fill-11" fill="#231F20" points="132.095678 44.5901639 132.095678 28.0906885 140.781873 28.0906885 140.781873 30.8786885 135.266829 30.8786885 135.266829 34.6721967 139.47205 34.6721967 139.47205 37.4601967 135.266829 37.4601967 135.266829 41.8021639 141.011667 41.8021639 141.011667 44.5901639"></polygon>
                <polygon id="Fill-13" fill="#231F20" points="143.30977 44.5901639 143.30977 28.0906885 146.779652 28.0906885 151.191687 37.871541 151.237646 37.871541 151.237646 28.0906885 154.133044 28.0906885 154.133044 44.5901639 151.09977 44.5901639 146.251127 33.940918 146.205168 33.940918 146.205168 44.5901639"></polygon>
                <polygon id="Fill-15" fill="#231F20" points="166.311876 28.0906328 166.311876 30.8786328 162.612201 30.8786328 162.612201 44.5901082 159.44105 44.5901082 159.44105 30.8786328 155.741375 30.8786328 155.741375 28.0906328"></polygon>
                <polygon id="Fill-17" fill="#231F20" points="167.73654 44.5901639 167.73654 28.0906885 176.422735 28.0906885 176.422735 30.8786885 170.90769 30.8786885 170.90769 34.6721967 175.112912 34.6721967 175.112912 37.4601967 170.90769 37.4601967 170.90769 41.8021639 176.652528 41.8021639 176.652528 44.5901639"></polygon>
                <path d="M181.938003,35.2663607 L183.569537,35.2663607 C184.27349,35.2663607 184.825555,35.0874426 185.22405,34.7296066 C185.621985,34.3717705 185.821513,33.7887541 185.821513,32.9811148 C185.821513,32.1740328 185.621985,31.5910164 185.22405,31.2331803 C184.825555,30.8753443 184.27349,30.6958689 183.569537,30.6958689 L181.938003,30.6958689 L181.938003,35.2663607 Z M186.212162,44.5901639 L183.45464,37.871541 L181.938003,37.871541 L181.938003,44.5901639 L178.766853,44.5901639 L178.766853,28.0906885 L183.362723,28.0906885 C185.277295,28.0906885 186.694729,28.5209836 187.613903,29.3815738 C188.533077,30.2427213 188.992664,31.4578033 188.992664,33.0268197 C188.992664,34.0629836 188.797059,34.9391803 188.406971,35.6548525 C188.015761,36.371082 187.376263,36.8966885 186.487914,37.2316721 L189.613106,44.5901639 L186.212162,44.5901639 Z" id="Fill-19" fill="#231F20"></path>
            </g>
        </g>
    </g>
</svg>